<svg width="209" height="212" viewBox="0 0 209 212" fill="none" xmlns="http://www.w3.org/2000/svg">
<rect width="208.82" height="211.386" rx="64" fill="#D9D9D9"/>
<rect width="208.82" height="211.386" rx="64" fill="black"/>
<path d="M62 91.5449H90.2728V107.818C90.2728 114.445 84.9002 119.818 78.2728 119.818H63C62.4477 119.818 62 119.37 62 118.818V91.5449Z" fill="#F9F9F9"/>
<path d="M90.2734 63.2734H118.546V79.5462C118.546 86.1737 113.174 91.5462 106.546 91.5462H90.2734V63.2734Z" fill="#F9F9F9"/>
<path d="M118.547 36C118.547 35.4477 118.995 35 119.547 35H145.82C146.372 35 146.82 35.4477 146.82 36V51.2728C146.82 57.9002 141.447 63.2728 134.82 63.2728H118.547V36Z" fill="#F9F9F9"/>
<path d="M62 148.113H90.2728V164.386C90.2728 171.014 84.9002 176.386 78.2728 176.386H63C62.4477 176.386 62 175.938 62 175.386V148.113Z" fill="#F9F9F9"/>
<path d="M90.2734 119.84H118.546V136.113C118.546 142.74 113.174 148.113 106.546 148.113H90.2734V119.84Z" fill="#F9F9F9"/>
<path d="M118.547 92.5664C118.547 92.0141 118.995 91.5664 119.547 91.5664H145.82C146.372 91.5664 146.82 92.0141 146.82 92.5664V107.839C146.82 114.467 141.447 119.839 134.82 119.839H118.547V92.5664Z" fill="#F9F9F9"/>
</svg>
