<svg width="211" height="211" viewBox="0 0 211 211" fill="none" xmlns="http://www.w3.org/2000/svg">
<rect width="211" height="211" rx="64" fill="#F9F9F9"/>
<path d="M62 91.3516H90.2728V107.624C90.2728 114.252 84.9002 119.624 78.2728 119.624H63C62.4477 119.624 62 119.177 62 118.624V91.3516Z" fill="#F9F9F9"/>
<path d="M62 91.3516H90.2728V107.624C90.2728 114.252 84.9002 119.624 78.2728 119.624H63C62.4477 119.624 62 119.177 62 118.624V91.3516Z" fill="#090909"/>
<path d="M90.2734 63.0801H118.546V79.3529C118.546 85.9803 113.174 91.3529 106.546 91.3529H90.2734V63.0801Z" fill="#F9F9F9"/>
<path d="M90.2734 63.0801H118.546V79.3529C118.546 85.9803 113.174 91.3529 106.546 91.3529H90.2734V63.0801Z" fill="#090909"/>
<path d="M118.547 34.8066H145.82C146.372 34.8066 146.82 35.2544 146.82 35.8066V51.0794C146.82 57.7069 141.447 63.0794 134.82 63.0794H118.547V34.8066Z" fill="#F9F9F9"/>
<path d="M118.547 34.8066H145.82C146.372 34.8066 146.82 35.2544 146.82 35.8066V51.0794C146.82 57.7069 141.447 63.0794 134.82 63.0794H118.547V34.8066Z" fill="#090909"/>
<path d="M62 147.92H90.2728V164.193C90.2728 170.82 84.9002 176.193 78.2728 176.193H63C62.4477 176.193 62 175.745 62 175.193V147.92Z" fill="#F9F9F9"/>
<path d="M62 147.92H90.2728V164.193C90.2728 170.82 84.9002 176.193 78.2728 176.193H63C62.4477 176.193 62 175.745 62 175.193V147.92Z" fill="#090909"/>
<path d="M90.2734 119.646H118.546V135.919C118.546 142.547 113.174 147.919 106.546 147.919H90.2734V119.646Z" fill="#F9F9F9"/>
<path d="M90.2734 119.646H118.546V135.919C118.546 142.547 113.174 147.919 106.546 147.919H90.2734V119.646Z" fill="#090909"/>
<path d="M118.547 91.373H145.82C146.372 91.373 146.82 91.8208 146.82 92.373V107.646C146.82 114.273 141.447 119.646 134.82 119.646H118.547V91.373Z" fill="#F9F9F9"/>
<path d="M118.547 91.373H145.82C146.372 91.373 146.82 91.8208 146.82 92.373V107.646C146.82 114.273 141.447 119.646 134.82 119.646H118.547V91.373Z" fill="#090909"/>
</svg>
