<svg width="308" height="513" viewBox="0 0 308 513" fill="none" xmlns="http://www.w3.org/2000/svg">
<path d="M0 204.923H102.462V273.384C102.462 292.162 87.2392 307.384 68.4615 307.384H1C0.447718 307.384 0 306.937 0 306.384V204.923Z" fill="#F9F9F9"/>
<path d="M0 204.923H102.462V273.384C102.462 292.162 87.2392 307.384 68.4615 307.384H1C0.447718 307.384 0 306.937 0 306.384V204.923Z" fill="#090909"/>
<path d="M102.462 102.462H204.923V170.923C204.923 189.701 189.701 204.923 170.923 204.923H102.462V102.462Z" fill="#F9F9F9"/>
<path d="M102.462 102.462H204.923V170.923C204.923 189.701 189.701 204.923 170.923 204.923H102.462V102.462Z" fill="#090909"/>
<path d="M204.923 0H306.384C306.937 0 307.384 0.447715 307.384 1V68.4615C307.384 87.2392 292.162 102.462 273.384 102.462H204.923V0Z" fill="#F9F9F9"/>
<path d="M204.923 0H306.384C306.937 0 307.384 0.447715 307.384 1V68.4615C307.384 87.2392 292.162 102.462 273.384 102.462H204.923V0Z" fill="#090909"/>
<path d="M0 409.92H102.462V478.381C102.462 497.159 87.2392 512.381 68.4615 512.381H1C0.447718 512.381 0 511.934 0 511.381V409.92Z" fill="#F9F9F9"/>
<path d="M0 409.92H102.462V478.381C102.462 497.159 87.2392 512.381 68.4615 512.381H1C0.447718 512.381 0 511.934 0 511.381V409.92Z" fill="#090909"/>
<path d="M102.462 307.459H204.923V375.92C204.923 394.698 189.701 409.921 170.923 409.921H102.462V307.459Z" fill="#F9F9F9"/>
<path d="M102.462 307.459H204.923V375.92C204.923 394.698 189.701 409.921 170.923 409.921H102.462V307.459Z" fill="#090909"/>
<path d="M204.923 204.997H306.384C306.937 204.997 307.384 205.445 307.384 205.997V273.459C307.384 292.236 292.162 307.459 273.384 307.459H204.923V204.997Z" fill="#F9F9F9"/>
<path d="M204.923 204.997H306.384C306.937 204.997 307.384 205.445 307.384 205.997V273.459C307.384 292.236 292.162 307.459 273.384 307.459H204.923V204.997Z" fill="#090909"/>
</svg>
